<?xml version="1.0" standalone="no"?>
<!DOCTYPE svg PUBLIC "-//W3C//DTD SVG 20010904//EN"
 "http://www.w3.org/TR/2001/REC-SVG-20010904/DTD/svg10.dtd">
<svg version="1.0" xmlns="http://www.w3.org/2000/svg"
 width="1056.000000pt" height="1056.000000pt" viewBox="0 0 1056.000000 1056.000000"
 preserveAspectRatio="xMidYMid meet">
<metadata>
Created by potrace 1.11, written by Peter Selinger 2001-2013
</metadata>
<g transform="translate(0.000000,1056.000000) scale(0.100000,-0.100000)"
fill="#000000" stroke="none">
<path d="M4978 10556 c-1 -2 -48 -6 -103 -10 -109 -7 -161 -12 -275 -27 -41
-6 -86 -12 -100 -14 -108 -14 -126 -17 -170 -28 -14 -4 -38 -9 -55 -11 -16 -3
-41 -7 -55 -11 -22 -4 -60 -12 -95 -19 -5 -1 -16 -5 -22 -9 -7 -5 -13 -6 -13
-3 0 3 -21 -2 -47 -10 -27 -8 -57 -16 -68 -18 -11 -2 -40 -9 -65 -16 -25 -7
-49 -13 -55 -14 -22 -4 -216 -70 -315 -106 -124 -46 -440 -180 -475 -202 -5
-3 -57 -30 -115 -61 -157 -82 -203 -107 -221 -123 -8 -8 -18 -14 -22 -14 -11
0 -232 -143 -235 -152 -2 -4 -8 -8 -13 -8 -8 0 -107 -67 -119 -80 -3 -3 -21
-17 -40 -30 -19 -13 -40 -29 -46 -35 -6 -5 -27 -21 -47 -35 -20 -14 -37 -28
-37 -32 0 -5 -7 -8 -16 -8 -8 0 -13 -4 -9 -9 3 -5 -3 -12 -12 -15 -10 -4 -36
-22 -58 -42 -22 -19 -69 -61 -105 -92 -36 -31 -130 -122 -210 -202 -129 -128
-182 -186 -295 -318 -16 -20 -38 -44 -48 -54 -9 -10 -14 -18 -11 -18 3 0 -1
-6 -8 -13 -13 -14 -34 -40 -88 -112 -16 -22 -33 -44 -38 -50 -37 -46 -92 -126
-92 -134 0 -5 -4 -11 -8 -13 -8 -3 -140 -206 -155 -238 -4 -8 -16 -28 -27 -45
-32 -51 -45 -74 -139 -258 -50 -98 -91 -185 -91 -193 0 -8 -4 -14 -10 -14 -5
0 -9 -3 -8 -7 1 -5 -4 -19 -10 -33 -86 -200 -175 -447 -167 -460 3 -6 2 -10
-3 -10 -8 0 -25 -46 -37 -99 -3 -9 -15 -55 -29 -103 -13 -47 -22 -89 -18 -92
3 -3 0 -6 -7 -6 -8 0 -11 -7 -7 -15 3 -8 1 -15 -5 -15 -6 0 -8 -4 -5 -8 4 -7
-2 -41 -21 -117 -2 -11 -6 -29 -8 -40 -2 -11 -9 -45 -15 -75 -6 -30 -13 -66
-15 -80 -3 -14 -7 -36 -10 -50 -3 -14 -8 -52 -11 -85 -3 -33 -8 -63 -10 -66
-2 -3 -6 -35 -9 -70 -3 -35 -8 -73 -10 -84 -27 -133 -27 -760 0 -990 3 -22 7
-60 10 -85 8 -67 36 -258 41 -283 3 -12 7 -33 10 -47 2 -14 10 -50 16 -80 7
-30 12 -64 13 -75 0 -11 4 -26 8 -33 5 -6 6 -12 2 -12 -3 0 -1 -8 4 -19 6 -10
13 -33 16 -51 3 -19 15 -65 26 -104 11 -39 22 -78 24 -86 10 -40 70 -228 84
-265 5 -11 18 -47 31 -80 20 -55 40 -105 72 -182 6 -15 12 -30 13 -33 1 -3 9
-22 18 -42 34 -77 45 -103 45 -112 0 -5 4 -12 9 -15 4 -3 39 -69 78 -146 38
-77 73 -142 77 -143 4 -2 8 -8 8 -13 0 -14 170 -293 181 -297 5 -2 9 -8 9 -13
0 -10 102 -160 167 -244 17 -21 119 -151 133 -169 37 -46 181 -207 208 -232
12 -12 22 -24 22 -26 0 -10 227 -228 313 -302 27 -22 59 -50 71 -61 12 -12 45
-39 72 -60 27 -22 54 -44 61 -50 7 -5 18 -14 25 -20 8 -5 40 -31 73 -56 33
-25 125 -89 205 -142 80 -54 150 -101 156 -106 7 -6 15 -7 18 -4 3 4 6 2 6 -4
0 -6 15 -16 33 -24 17 -7 34 -16 37 -20 11 -16 490 -263 490 -253 0 2 11 -3
25 -12 14 -9 25 -12 25 -8 0 5 4 3 9 -4 4 -7 14 -14 22 -16 8 -1 24 -8 36 -14
13 -7 23 -10 23 -6 0 3 6 1 14 -5 8 -7 24 -14 37 -16 12 -3 25 -8 28 -12 3 -5
14 -9 25 -11 10 -2 30 -8 45 -14 14 -6 28 -12 31 -13 3 -1 12 -4 20 -7 8 -4
40 -14 70 -25 30 -10 57 -20 60 -23 3 -3 12 -6 20 -7 17 -2 156 -41 180 -50
22 -9 42 -13 67 -16 13 -1 23 -5 23 -8 0 -4 15 -9 33 -12 17 -3 64 -12 102
-22 39 -9 79 -18 90 -20 11 -3 31 -7 45 -10 34 -7 91 -16 113 -18 9 -1 17 -4
17 -7 0 -3 12 -5 28 -4 15 1 31 -1 37 -4 5 -3 18 -7 30 -8 11 -1 43 -5 70 -9
51 -7 64 -8 170 -20 345 -38 716 -34 1100 11 17 2 48 6 70 8 22 2 54 7 70 11
17 3 48 8 70 10 42 5 80 12 80 15 0 1 11 3 25 5 113 13 504 117 685 182 39 14
75 26 80 27 6 2 19 7 30 11 11 4 58 23 105 42 47 19 90 35 95 37 6 2 31 12 58
24 26 12 49 22 52 22 2 1 36 17 75 36 38 18 72 33 74 31 2 -1 12 6 22 15 11 9
31 20 47 23 15 4 27 11 27 15 0 4 12 13 28 19 15 5 56 26 92 46 36 20 79 44
95 53 17 10 32 19 35 22 3 3 22 14 43 25 20 11 37 23 37 27 0 3 9 10 21 13 11
4 64 37 118 74 53 37 105 70 114 74 9 3 17 11 17 17 0 24 30 7 71 -41 24 -28
53 -61 64 -74 135 -149 177 -196 206 -230 19 -22 43 -49 54 -61 11 -11 42 -45
68 -75 27 -30 75 -83 107 -119 32 -36 68 -76 80 -90 18 -21 49 -56 175 -196
11 -12 49 -55 85 -95 36 -41 75 -84 88 -97 12 -13 22 -25 22 -27 0 -2 15 -19
33 -38 17 -18 56 -61 86 -95 29 -34 65 -74 80 -90 14 -15 53 -59 86 -96 105
-121 179 -189 230 -213 43 -20 66 -23 168 -23 146 0 163 6 269 99 36 31 93
132 104 184 8 36 5 154 -5 179 -5 13 -9 26 -11 30 -8 31 -26 68 -32 68 -4 0
-8 6 -8 13 0 7 -23 37 -50 67 -28 30 -67 75 -88 98 -20 24 -48 56 -62 72 -14
15 -56 62 -95 105 -38 43 -83 92 -98 109 -16 17 -51 56 -77 86 -26 30 -59 67
-72 81 -12 14 -50 56 -83 93 -33 37 -69 78 -80 90 -11 12 -45 50 -75 85 -30
35 -71 80 -90 100 -19 21 -57 64 -85 96 -27 32 -59 67 -71 79 -11 11 -56 61
-100 111 -43 49 -83 95 -89 101 -36 41 -163 181 -177 196 -10 10 -18 22 -18
26 0 5 30 40 66 78 37 38 92 98 123 133 31 35 61 68 67 75 5 6 32 38 58 71 27
32 54 65 60 72 16 18 27 32 79 103 27 36 54 72 60 80 7 8 12 17 12 20 0 3 14
24 31 45 17 22 57 81 89 130 32 50 66 102 76 117 11 15 19 29 19 32 0 2 19 37
43 78 40 67 186 342 187 353 1 2 15 35 32 72 32 72 50 114 53 126 2 4 4 10 5
15 1 4 2 10 1 14 0 5 3 8 8 8 4 0 14 20 21 45 7 25 17 45 23 45 6 0 8 3 5 6
-3 3 3 29 14 57 10 29 21 59 23 67 3 8 16 47 29 86 30 85 96 309 102 344 3 14
7 31 10 39 6 18 44 186 50 226 3 17 7 41 9 55 2 14 4 25 5 25 2 0 4 9 5 20 2
11 6 43 10 70 5 28 9 59 11 70 1 11 3 20 4 20 1 0 3 14 5 30 1 17 6 59 10 95
21 179 29 341 28 570 0 173 -8 425 -14 425 -1 0 -3 18 -5 40 -8 88 -21 190
-24 190 -1 0 -3 18 -5 40 -3 39 -5 51 -27 170 -6 33 -12 70 -13 82 -2 11 -6
30 -9 41 -4 11 -9 31 -11 44 -3 13 -7 34 -10 48 -3 14 -7 34 -10 45 -4 19 -39
149 -70 260 -8 28 -30 97 -50 155 -20 58 -38 110 -39 115 -2 6 -7 19 -11 30
-4 11 -25 66 -47 122 -22 57 -43 105 -48 108 -5 3 -7 12 -3 20 3 8 0 15 -6 15
-6 0 -10 3 -9 8 4 13 -151 334 -164 340 -5 2 -8 8 -8 13 0 12 -99 189 -118
212 -8 9 -12 17 -8 17 4 0 -2 10 -14 22 -11 12 -20 28 -20 35 0 7 -4 13 -10
13 -5 0 -10 6 -10 13 0 7 -8 22 -18 33 -10 10 -21 26 -24 34 -3 8 -33 53 -67
100 -33 47 -66 93 -73 104 -30 43 -53 72 -65 79 -7 4 -13 13 -13 20 0 7 -15
28 -33 47 -18 19 -40 45 -48 57 -15 22 -65 80 -164 191 -72 81 -290 297 -370
367 -38 33 -79 69 -91 81 -13 11 -35 29 -50 40 -14 10 -39 30 -55 44 -39 34
-44 38 -129 100 -41 30 -77 57 -80 60 -13 14 -220 150 -228 150 -6 0 -12 3
-14 8 -5 11 -171 110 -293 175 -22 12 -47 27 -55 33 -8 7 -17 12 -20 12 -14
-2 -50 15 -50 23 0 6 -4 7 -10 4 -5 -3 -10 -1 -10 4 0 6 -3 10 -7 9 -5 -1 -46
16 -93 39 -47 22 -96 44 -110 48 -14 4 -30 11 -36 16 -6 5 -30 15 -53 23 -23
9 -56 22 -74 29 -53 24 -144 58 -158 61 -8 1 -20 5 -26 9 -11 7 -95 35 -128
43 -5 1 -29 9 -53 18 -23 8 -44 15 -47 16 -3 0 -6 0 -7 1 -2 0 -10 2 -18 4 -8
2 -33 9 -55 15 -22 6 -44 12 -50 13 -5 1 -16 6 -22 10 -7 5 -13 6 -13 3 0 -2
-15 0 -32 5 -18 6 -44 12 -58 14 -14 2 -40 8 -59 14 -19 6 -37 8 -42 6 -4 -3
-10 -1 -14 4 -3 5 -13 10 -23 9 -9 0 -39 5 -67 11 -76 16 -86 18 -138 25 -27
4 -58 9 -70 12 -46 8 -150 21 -242 30 -38 3 -86 8 -105 10 -41 5 -627 14 -632
10z m262 -721 c8 0 25 3 38 7 12 4 22 4 22 0 0 -4 51 -8 113 -9 61 -1 130 -4
152 -7 22 -3 72 -8 110 -12 108 -10 130 -12 130 -14 0 -1 11 -3 25 -5 14 -2
43 -6 65 -9 22 -4 54 -9 70 -11 17 -3 41 -7 55 -10 14 -4 35 -8 48 -11 12 -2
34 -7 50 -10 15 -3 36 -7 47 -9 35 -7 60 -13 60 -15 0 -1 13 -4 29 -6 16 -3
38 -10 49 -15 10 -6 21 -8 24 -5 3 3 14 1 25 -5 11 -6 29 -12 40 -14 30 -6 90
-25 113 -36 11 -5 29 -11 40 -12 11 -2 33 -9 48 -15 16 -7 30 -12 33 -12 9 0
302 -119 353 -144 30 -14 60 -26 67 -26 7 0 14 -3 16 -8 2 -4 37 -24 78 -45
41 -21 100 -52 130 -69 30 -17 69 -38 85 -47 17 -9 55 -33 86 -54 31 -20 61
-37 68 -37 6 0 11 -4 11 -8 0 -4 13 -15 29 -25 31 -18 213 -147 221 -156 3 -4
23 -19 45 -35 22 -16 47 -37 56 -45 8 -9 30 -27 48 -41 143 -110 464 -437 579
-591 20 -27 40 -49 44 -49 4 0 8 -5 8 -10 0 -6 23 -40 50 -75 28 -35 50 -69
50 -74 0 -5 4 -11 8 -13 12 -4 112 -155 112 -168 0 -5 4 -10 8 -10 5 0 16 -15
25 -32 9 -18 29 -53 44 -78 43 -71 78 -137 133 -250 28 -58 55 -113 60 -122
13 -22 91 -210 94 -223 1 -5 8 -21 16 -35 7 -14 13 -27 13 -30 0 -3 1 -9 3
-15 2 -5 19 -58 38 -116 29 -89 87 -293 101 -357 35 -159 44 -203 49 -236 4
-21 8 -48 11 -60 2 -12 7 -43 10 -71 3 -27 8 -63 11 -80 19 -130 28 -289 27
-510 0 -254 -3 -335 -15 -359 -8 -14 -7 -17 3 -11 8 5 10 4 5 -4 -4 -6 -9 -35
-12 -64 -6 -74 -11 -113 -23 -187 -6 -36 -13 -83 -17 -105 -3 -22 -7 -44 -9
-50 -3 -13 -15 -76 -19 -95 -2 -8 -6 -26 -9 -40 -10 -37 -48 -193 -52 -210 -2
-8 -4 -15 -5 -15 -1 0 -4 -9 -14 -50 -4 -21 -33 -109 -43 -135 -3 -8 -7 -21
-9 -27 -5 -25 -58 -167 -88 -235 -9 -20 -16 -39 -16 -42 0 -19 -157 -337 -225
-456 -47 -83 -222 -356 -247 -386 -27 -32 -34 -41 -78 -99 -50 -68 -52 -70
-83 -106 -116 -134 -158 -180 -267 -289 -105 -105 -161 -158 -286 -265 -29
-25 -56 -46 -159 -123 -60 -45 -114 -86 -120 -90 -10 -8 -153 -101 -210 -137
-16 -11 -46 -28 -65 -39 -19 -11 -57 -32 -85 -48 -27 -15 -70 -38 -95 -51 -25
-12 -46 -25 -48 -29 -2 -5 -10 -8 -17 -8 -8 0 -29 -9 -47 -19 -68 -41 -422
-185 -482 -197 -10 -2 -24 -8 -32 -15 -8 -6 -14 -9 -14 -5 0 3 -22 -3 -50 -14
-27 -11 -50 -18 -50 -15 0 2 -12 0 -27 -6 -55 -21 -277 -75 -383 -93 -14 -3
-25 -5 -25 -6 0 -1 -11 -3 -25 -6 -14 -2 -52 -8 -85 -14 -33 -5 -80 -12 -105
-15 -25 -3 -65 -7 -89 -10 -85 -11 -147 -16 -246 -20 -55 -2 -101 -4 -102 -5
-10 -5 -82 -2 -91 4 -7 4 -12 3 -12 -3 0 -6 -6 -9 -12 -6 -7 2 -89 7 -183 10
-93 4 -183 8 -200 10 -116 13 -274 34 -310 41 -11 2 -40 8 -65 13 -25 5 -61
12 -81 15 -20 3 -42 8 -50 10 -8 3 -25 7 -39 10 -14 2 -77 18 -140 35 -63 17
-122 33 -131 35 -9 3 -39 12 -65 21 -27 9 -53 18 -59 19 -5 1 -16 5 -23 9 -7
5 -24 11 -39 13 -15 3 -34 11 -42 17 -8 7 -17 11 -20 11 -32 -7 -497 206 -636
291 -22 14 -55 32 -72 41 -18 9 -33 20 -33 25 0 5 -3 8 -7 7 -7 -3 -82 39 -93
52 -5 5 -134 94 -168 115 -9 6 -21 15 -27 20 -7 6 -24 19 -40 30 -15 11 -36
28 -47 37 -10 10 -22 18 -27 18 -5 0 -11 3 -13 8 -1 4 -25 25 -53 47 -27 22
-57 47 -66 55 -9 8 -51 47 -94 85 -105 96 -256 251 -342 352 -23 26 -50 58
-60 70 -11 12 -28 34 -39 48 -10 15 -25 34 -32 41 -8 8 -42 54 -77 102 -35 48
-69 92 -74 98 -5 7 -7 15 -4 18 4 3 2 6 -3 6 -6 0 -23 22 -39 50 -17 27 -33
50 -37 50 -5 0 -8 4 -8 10 0 5 -16 34 -35 64 -64 101 -191 341 -236 446 -12
30 -28 58 -33 62 -6 4 -7 8 -2 8 4 0 1 11 -8 25 -9 14 -14 25 -10 25 4 0 2 6
-3 13 -6 6 -16 30 -23 52 -7 22 -16 45 -20 50 -4 6 -22 55 -40 110 -18 55 -36
109 -41 120 -8 22 -30 90 -33 108 -2 7 -6 19 -9 27 -4 8 -9 26 -11 40 -3 14
-12 50 -20 80 -15 57 -23 93 -32 145 -3 17 -7 37 -10 45 -3 8 -7 24 -9 35 -22
122 -26 155 -28 183 0 12 -3 22 -6 22 -4 0 -6 12 -7 28 0 15 -4 54 -7 87 -8
70 -15 157 -22 275 -7 94 -6 87 -4 151 1 25 -1 50 -4 57 -4 6 -3 13 2 17 7 3
7 15 1 29 -5 13 -7 26 -4 29 3 3 7 49 9 103 4 107 13 221 21 269 3 17 7 55 10
85 6 65 11 105 14 105 1 0 4 14 5 30 4 34 12 78 22 115 3 14 7 32 8 40 10 65
17 106 22 113 3 4 7 23 10 40 10 62 118 414 150 487 3 8 7 17 7 20 1 7 23 59
81 195 57 132 213 436 234 455 3 3 13 19 22 35 31 60 44 80 57 88 6 4 12 13
12 18 0 9 54 93 93 144 4 5 34 46 67 90 61 81 99 130 135 171 11 13 36 42 55
65 45 54 342 353 396 399 23 19 60 51 84 70 23 19 48 40 54 45 6 6 29 23 51
40 22 16 47 35 55 42 55 43 112 83 120 83 6 0 10 4 10 8 0 5 12 15 27 23 15 8
35 22 45 32 10 9 25 17 33 17 8 0 15 3 15 8 0 4 20 18 45 32 25 14 45 27 45
30 0 3 15 11 33 19 17 8 34 17 37 20 12 16 460 240 490 247 3 0 14 4 25 9 190
78 402 146 620 201 6 1 21 4 35 7 14 3 36 8 50 11 14 3 36 8 50 10 14 2 32 7
40 10 8 2 35 8 60 11 77 10 104 15 130 20 14 3 50 8 80 11 30 2 71 7 90 10 65
9 195 17 302 18 60 1 108 5 108 9 0 5 6 5 13 0 6 -4 19 -8 27 -8z"/>
<path d="M6798 8285 c-1 -1 -19 -5 -38 -8 -32 -4 -49 -9 -90 -25 -8 -3 -17 -6
-20 -7 -20 -7 -92 -36 -167 -67 -15 -6 -30 -12 -33 -13 -3 -1 -18 -7 -35 -14
-16 -6 -70 -28 -120 -48 -49 -19 -103 -42 -120 -49 -54 -25 -229 -95 -249 -99
-10 -2 -23 -8 -30 -13 -6 -5 -40 -19 -76 -32 -36 -13 -74 -29 -85 -36 -11 -7
-22 -13 -25 -13 -9 0 -80 -27 -410 -162 -52 -22 -100 -39 -107 -39 -7 0 -13
-5 -13 -10 0 -6 -3 -9 -7 -9 -5 1 -24 -4 -43 -12 -19 -7 -38 -12 -42 -11 -5 1
-8 -2 -8 -8 0 -6 -3 -9 -7 -8 -5 1 -21 -4 -38 -11 -42 -16 -60 -22 -63 -21 -1
0 -17 -8 -35 -17 -17 -10 -36 -18 -42 -19 -5 0 -28 -8 -50 -18 -22 -9 -123
-51 -225 -92 -102 -41 -194 -79 -205 -84 -11 -5 -90 -37 -175 -71 -85 -34
-189 -75 -230 -92 -41 -16 -87 -38 -102 -48 -14 -11 -31 -19 -37 -19 -6 0 -11
-4 -11 -9 0 -5 -8 -12 -17 -16 -10 -3 -29 -21 -43 -39 -14 -19 -28 -32 -32
-29 -5 2 -8 0 -8 -6 0 -5 -13 -30 -30 -54 -16 -25 -30 -51 -30 -59 0 -8 -3
-18 -7 -22 -4 -3 -8 -12 -10 -19 -1 -7 -7 -31 -13 -55 -12 -50 -17 -273 -6
-290 4 -7 4 -12 -1 -12 -10 0 -8 -93 1 -109 4 -6 4 -11 -1 -11 -4 0 -8 -85 -8
-190 0 -104 4 -190 8 -190 5 0 5 -5 1 -12 -10 -17 -11 -158 -1 -158 5 0 5 -5
2 -11 -9 -14 -10 -254 -1 -268 4 -6 4 -11 -1 -11 -10 0 -8 -93 1 -109 4 -6 4
-11 -1 -11 -4 0 -8 -85 -8 -190 0 -104 4 -190 8 -190 5 0 5 -5 1 -12 -10 -17
-11 -158 -1 -158 5 0 5 -5 2 -11 -9 -14 -10 -254 -1 -268 4 -6 4 -11 -1 -11
-10 0 -8 -93 1 -109 4 -6 3 -11 -1 -11 -5 0 -7 -47 -6 -105 l3 -104 -82 6
c-202 16 -379 2 -538 -43 -105 -30 -105 -30 -213 -85 -81 -40 -170 -112 -217
-174 -61 -81 -74 -220 -30 -310 61 -126 226 -242 431 -304 35 -11 78 -22 94
-25 17 -3 41 -7 55 -10 51 -12 157 -23 255 -26 78 -3 281 18 306 31 9 4 19 6
22 2 3 -3 14 -2 24 2 10 5 24 9 30 11 41 8 154 49 197 71 119 60 190 117 243
194 66 95 62 8 62 1577 -1 1102 2 1426 11 1437 7 8 20 15 30 15 9 0 20 3 24 8
4 4 11 7 14 8 7 1 19 6 105 43 26 11 49 21 52 21 10 1 42 14 103 41 34 15 65
28 67 28 3 1 21 8 41 16 20 8 40 15 44 15 4 0 20 6 36 14 51 24 96 43 194 81
52 21 114 46 137 56 23 11 45 19 48 19 4 0 21 7 38 14 18 8 118 49 222 91 221
90 302 123 330 134 48 21 160 66 165 67 3 0 22 8 44 17 21 9 41 17 45 17 3 1
24 9 46 20 22 11 43 19 46 20 4 0 24 8 45 17 22 9 41 17 44 18 7 1 157 63 197
81 17 8 34 14 38 14 3 0 25 9 48 19 60 27 169 71 177 71 4 0 7 -42 7 -92 1
-51 1 -106 2 -123 1 -34 1 -122 1 -145 0 -8 0 -35 0 -60 0 -25 0 -52 0 -60 0
-8 0 -35 0 -60 0 -25 0 -52 0 -60 0 -8 0 -35 0 -60 0 -25 0 -52 0 -60 0 -8 0
-62 0 -120 0 -58 0 -112 0 -120 0 -8 0 -35 0 -60 0 -61 0 -60 -3 -102 -1 -21
1 -38 6 -38 6 0 5 -5 0 -12 -5 -7 -8 -31 -6 -53 2 -22 3 -47 3 -55 0 -8 0 -35
0 -60 0 -25 0 -52 0 -60 0 -8 0 -53 0 -100 0 -47 0 -92 0 -100 0 -8 0 -35 0
-60 0 -61 0 -60 -3 -102 -1 -21 1 -38 6 -38 6 0 5 -5 0 -12 -5 -7 -8 -31 -6
-53 2 -22 3 -47 3 -55 0 -8 0 -35 0 -60 0 -55 0 -53 -3 -115 l-2 -50 -40 4
c-84 9 -410 2 -410 -9 0 -1 -16 -3 -35 -6 -91 -12 -224 -52 -299 -91 -24 -13
-50 -23 -57 -23 -8 0 -14 -3 -14 -8 0 -4 -16 -16 -36 -27 -46 -24 -185 -160
-176 -172 0 -2 -6 -20 -15 -40 -36 -83 -19 -203 38 -285 36 -51 111 -120 164
-150 49 -29 176 -88 194 -91 9 -1 22 -6 29 -11 7 -4 23 -10 35 -12 28 -5 105
-21 136 -28 105 -25 436 -26 539 -1 50 12 68 15 97 19 17 3 47 12 67 20 21 9
41 17 45 17 23 4 136 56 177 82 60 38 128 107 163 165 25 42 55 178 44 197 -8
16 -8 88 1 108 5 9 5 17 1 17 -10 0 -9 772 1 788 4 7 3 12 -1 12 -10 0 -9 92
1 108 4 7 3 12 -1 12 -10 0 -9 92 1 108 4 7 3 12 -1 12 -10 0 -9 92 1 108 4 7
3 12 -1 12 -10 0 -9 92 1 108 4 7 4 12 -1 12 -10 0 -9 411 1 428 4 7 3 12 -1
12 -10 0 -9 92 1 108 4 7 4 12 -1 12 -10 0 -10 81 0 98 5 6 4 12 0 12 -10 0
-10 61 1 78 4 7 3 12 -1 12 -10 0 -9 92 1 108 4 7 4 12 -1 12 -10 0 -10 537 0
546 4 4 2 13 -4 21 -6 7 -9 22 -6 33 3 11 1 20 -5 20 -5 0 -7 4 -4 9 10 16
-47 161 -66 169 -5 2 -8 10 -8 17 0 16 -117 125 -155 145 -17 8 -33 19 -37 25
-4 5 -8 7 -8 3 0 -4 -17 0 -37 8 -20 9 -46 18 -57 20 -28 6 -153 13 -158 9z"/>
</g>
</svg>
