<svg xmlns="http://www.w3.org/2000/svg" viewBox="0 0 248.02 263.91"><defs><style>.cls-1,.cls-2{fill:none;}.cls-1,.cls-2,.cls-3{stroke:#1d1d1b;stroke-miterlimit:10;}.cls-1{stroke-width:18px;}.cls-2{stroke-width:16px;}.cls-3{fill:#1d1d1b;}</style></defs><g id="Ebene_2" data-name="Ebene 2"><g id="Ebene_1-2" data-name="Ebene 1"><rect class="cls-1" x="218.69" y="203.19" width="1.02" height="59.06" rx="0.51" transform="matrix(-0.75, 0.67, -0.67, -0.75, 537.69, 260.67)"/><circle class="cls-1" cx="122.73" cy="122.73" r="113.73"/><path class="cls-2" d="M91.47,169.61V96.38a4.23,4.23,0,0,1,2.64-3.93l67.51-27.33a4.25,4.25,0,0,1,5.84,3.94v71.62"/><path class="cls-3" d="M175,140.69c0,6.52-9.1,11.44-21.05,11.44s-21.65-5.29-21.65-11.81,9.69-11.81,21.65-11.81S175,134.17,175,140.69Z"/><path class="cls-3" d="M99,169.56c0,6.52-9.19,11.86-21.14,11.86s-21.64-5.29-21.64-11.81,9.69-11.8,21.64-11.8S99,163,99,169.56Z"/></g></g></svg>